<?xml version="1.0" encoding="UTF-8" standalone="no"?>
<!-- Created with Inkscape (http://www.inkscape.org/) -->

<svg
   width="240mm"
   height="70mm"
   viewBox="0 0 240 70"
   version="1.1"
   id="svg8"
   inkscape:version="1.3.2 (091e20e, 2023-11-25)"
   sodipodi:docname="associativity.svg"
   xmlns:inkscape="http://www.inkscape.org/namespaces/inkscape"
   xmlns:sodipodi="http://sodipodi.sourceforge.net/DTD/sodipodi-0.dtd"
   xmlns="http://www.w3.org/2000/svg"
   xmlns:svg="http://www.w3.org/2000/svg"
   xmlns:rdf="http://www.w3.org/1999/02/22-rdf-syntax-ns#"
   xmlns:cc="http://creativecommons.org/ns#"
   xmlns:dc="http://purl.org/dc/elements/1.1/">
  <defs
     id="defs2">
    <inkscape:path-effect
       effect="bspline"
       id="path-effect83"
       is_visible="true"
       lpeversion="1.3"
       weight="33.333333"
       steps="2"
       helper_size="0"
       apply_no_weight="true"
       apply_with_weight="true"
       only_selected="false"
       uniform="false" />
    <inkscape:path-effect
       effect="bspline"
       id="path-effect81"
       is_visible="true"
       lpeversion="1.3"
       weight="33.333333"
       steps="2"
       helper_size="0"
       apply_no_weight="true"
       apply_with_weight="true"
       only_selected="false"
       uniform="false" />
    <inkscape:path-effect
       effect="bspline"
       id="path-effect79"
       is_visible="true"
       lpeversion="1.3"
       weight="33.333333"
       steps="2"
       helper_size="0"
       apply_no_weight="true"
       apply_with_weight="true"
       only_selected="false"
       uniform="false" />
    <inkscape:path-effect
       effect="bspline"
       id="path-effect77"
       is_visible="true"
       lpeversion="1.3"
       weight="33.333333"
       steps="2"
       helper_size="0"
       apply_no_weight="true"
       apply_with_weight="true"
       only_selected="false"
       uniform="false" />
    <inkscape:path-effect
       effect="bspline"
       id="path-effect66"
       is_visible="true"
       lpeversion="1.3"
       weight="33.333333"
       steps="2"
       helper_size="0"
       apply_no_weight="true"
       apply_with_weight="true"
       only_selected="false"
       uniform="false" />
    <inkscape:path-effect
       effect="bspline"
       id="path-effect64"
       is_visible="true"
       lpeversion="1.3"
       weight="33.333333"
       steps="2"
       helper_size="0"
       apply_no_weight="true"
       apply_with_weight="true"
       only_selected="false"
       uniform="false" />
    <inkscape:path-effect
       effect="bspline"
       id="path-effect62"
       is_visible="true"
       lpeversion="1.3"
       weight="33.333333"
       steps="2"
       helper_size="0"
       apply_no_weight="true"
       apply_with_weight="true"
       only_selected="false"
       uniform="false" />
    <inkscape:path-effect
       effect="bspline"
       id="path-effect60"
       is_visible="true"
       lpeversion="1.3"
       weight="33.333333"
       steps="2"
       helper_size="0"
       apply_no_weight="true"
       apply_with_weight="true"
       only_selected="false"
       uniform="false" />
    <inkscape:path-effect
       effect="bspline"
       id="path-effect47"
       is_visible="true"
       lpeversion="1.3"
       weight="33.333333"
       steps="2"
       helper_size="0"
       apply_no_weight="true"
       apply_with_weight="true"
       only_selected="false"
       uniform="false" />
    <inkscape:path-effect
       effect="bspline"
       id="path-effect45"
       is_visible="true"
       lpeversion="1.3"
       weight="33.333333"
       steps="2"
       helper_size="0"
       apply_no_weight="true"
       apply_with_weight="true"
       only_selected="false"
       uniform="false" />
    <inkscape:path-effect
       effect="bspline"
       id="path-effect43"
       is_visible="true"
       lpeversion="1.3"
       weight="33.333333"
       steps="2"
       helper_size="0"
       apply_no_weight="true"
       apply_with_weight="true"
       only_selected="false"
       uniform="false" />
    <inkscape:path-effect
       effect="bspline"
       id="path-effect41"
       is_visible="true"
       lpeversion="1.3"
       weight="33.333333"
       steps="2"
       helper_size="0"
       apply_no_weight="true"
       apply_with_weight="true"
       only_selected="false"
       uniform="false" />
    <inkscape:path-effect
       effect="bspline"
       id="path-effect34"
       is_visible="true"
       lpeversion="1.3"
       weight="33.333333"
       steps="2"
       helper_size="0"
       apply_no_weight="true"
       apply_with_weight="true"
       only_selected="false"
       uniform="false" />
    <inkscape:path-effect
       effect="bspline"
       id="path-effect32"
       is_visible="true"
       lpeversion="1.3"
       weight="33.333333"
       steps="2"
       helper_size="0"
       apply_no_weight="true"
       apply_with_weight="true"
       only_selected="false"
       uniform="false" />
    <inkscape:path-effect
       effect="bspline"
       id="path-effect30"
       is_visible="true"
       lpeversion="1.3"
       weight="33.333333"
       steps="2"
       helper_size="0"
       apply_no_weight="true"
       apply_with_weight="true"
       only_selected="false"
       uniform="false" />
    <inkscape:path-effect
       effect="bspline"
       id="path-effect28"
       is_visible="true"
       lpeversion="1.3"
       weight="33.333333"
       steps="2"
       helper_size="0"
       apply_no_weight="true"
       apply_with_weight="true"
       only_selected="false"
       uniform="false" />
    <inkscape:path-effect
       effect="bspline"
       id="path-effect21"
       is_visible="true"
       lpeversion="1.3"
       weight="33.333333"
       steps="2"
       helper_size="0"
       apply_no_weight="true"
       apply_with_weight="true"
       only_selected="false"
       uniform="false" />
    <inkscape:path-effect
       effect="bspline"
       id="path-effect19"
       is_visible="true"
       lpeversion="1.3"
       weight="33.333333"
       steps="2"
       helper_size="0"
       apply_no_weight="true"
       apply_with_weight="true"
       only_selected="false"
       uniform="false" />
    <inkscape:path-effect
       effect="bspline"
       id="path-effect17"
       is_visible="true"
       lpeversion="1.3"
       weight="33.333333"
       steps="2"
       helper_size="0"
       apply_no_weight="true"
       apply_with_weight="true"
       only_selected="false"
       uniform="false" />
    <inkscape:path-effect
       effect="bspline"
       id="path-effect15"
       is_visible="true"
       lpeversion="1.3"
       weight="33.333333"
       steps="2"
       helper_size="0"
       apply_no_weight="true"
       apply_with_weight="true"
       only_selected="false"
       uniform="false" />
    <inkscape:path-effect
       effect="bspline"
       id="path-effect8"
       is_visible="true"
       lpeversion="1.3"
       weight="33.333333"
       steps="2"
       helper_size="0"
       apply_no_weight="true"
       apply_with_weight="true"
       only_selected="false"
       uniform="false" />
    <inkscape:path-effect
       effect="bspline"
       id="path-effect7"
       is_visible="true"
       lpeversion="1.3"
       weight="33.333333"
       steps="2"
       helper_size="0"
       apply_no_weight="true"
       apply_with_weight="true"
       only_selected="false"
       uniform="false" />
    <inkscape:path-effect
       effect="bspline"
       id="path-effect6"
       is_visible="true"
       lpeversion="1.3"
       weight="33.333333"
       steps="2"
       helper_size="0"
       apply_no_weight="true"
       apply_with_weight="true"
       only_selected="false"
       uniform="false" />
    <inkscape:path-effect
       effect="bspline"
       id="path-effect5"
       is_visible="true"
       lpeversion="1.3"
       weight="33.333333"
       steps="2"
       helper_size="0"
       apply_no_weight="true"
       apply_with_weight="true"
       only_selected="false"
       uniform="false" />
  </defs>
  <sodipodi:namedview
     id="base"
     pagecolor="#ffffff"
     bordercolor="#666666"
     borderopacity="1.0"
     inkscape:pageopacity="0.0"
     inkscape:pageshadow="2"
     inkscape:zoom="0.97377302"
     inkscape:cx="428.74468"
     inkscape:cy="203.3328"
     inkscape:document-units="mm"
     inkscape:current-layer="layer1"
     showgrid="true"
     showborder="true"
     width="200mm"
     showguides="true"
     inkscape:guide-bbox="true"
     inkscape:window-width="1440"
     inkscape:window-height="771"
     inkscape:window-x="585"
     inkscape:window-y="1465"
     inkscape:window-maximized="1"
     inkscape:showpageshadow="2"
     inkscape:pagecheckerboard="0"
     inkscape:deskcolor="#d1d1d1">
    <inkscape:grid
       type="xygrid"
       id="grid815"
       units="mm"
       spacingx="10"
       spacingy="10"
       empspacing="4"
       dotted="false"
       originx="0"
       originy="0"
       visible="true" />
  </sodipodi:namedview>
  <metadata
     id="metadata5">
    <rdf:RDF>
      <cc:Work
         rdf:about="">
        <dc:format>image/svg+xml</dc:format>
        <dc:type
           rdf:resource="http://purl.org/dc/dcmitype/StillImage" />
      </cc:Work>
    </rdf:RDF>
  </metadata>
  <g
     inkscape:label="Layer 1"
     inkscape:groupmode="layer"
     id="layer1"
     transform="translate(0,-177)">
    <ellipse
       style="fill:none;stroke:#000000;stroke-width:0.702204"
       id="path1"
       cx="31.788273"
       cy="187.68182"
       rx="5"
       ry="2.6827908" />
    <path
       style="fill:none;fill-opacity:1;stroke:#000000;stroke-width:0.702204;stroke-dasharray:1.05331, 1.05331;stroke-opacity:1;marker-start:none;marker-end:none"
       id="path2"
       sodipodi:type="arc"
       sodipodi:cx="11.78827"
       sodipodi:cy="243.01498"
       sodipodi:rx="5"
       sodipodi:ry="2.6503673"
       sodipodi:start="3.1415927"
       sodipodi:end="0"
       sodipodi:open="true"
       sodipodi:arc-type="arc"
       d="m 6.78827,243.01498 a 5,2.6503673 0 0 1 5,-2.65036 5,2.6503673 0 0 1 5,2.65036" />
    <path
       style="fill:none;fill-opacity:1;stroke:#000000;stroke-width:0.702204;stroke-dasharray:1.05331, 1.05331;stroke-opacity:1;marker-start:none;marker-end:none"
       id="ellipse4"
       sodipodi:type="arc"
       sodipodi:cx="31.437172"
       sodipodi:cy="243.36606"
       sodipodi:rx="5"
       sodipodi:ry="2.6503673"
       sodipodi:start="3.1415927"
       sodipodi:end="0"
       sodipodi:arc-type="arc"
       d="m 26.437172,243.36606 a 5,2.6503673 0 0 1 5,-2.65037 5,2.6503673 0 0 1 5,2.65037"
       sodipodi:open="true" />
    <path
       style="fill:none;stroke:#000000;stroke-width:0.702204"
       d="m 20,249.65038 c 0,-7.55013 0,-15.10026 3.333399,-20.54202 3.333399,-5.44176 9.999934,-8.77503 13.333267,-14.22223 3.333333,-5.44721 3.333333,-13.00799 3.333333,-20.56892"
       id="path5"
       inkscape:path-effect="#path-effect5"
       inkscape:original-d="m 20,249.65038 c 0,-7.55013 0,-15.10026 0,-22.65038 6.666798,-3.3334 13.333332,-6.66667 19.999999,-10 0,-7.56108 0,-15.12186 0,-22.68279"
       transform="translate(-13.211728,-6.6353878)" />
    <path
       style="fill:none;stroke:#000000;stroke-width:0.702204"
       d="m 50,194.31721 c 0,7.56093 0,15.12186 3.370418,20.35114 3.370418,5.22927 10.110983,8.12678 13.422816,13.62711 3.311834,5.50032 3.194802,13.60308 3.077768,21.706"
       id="path6"
       inkscape:path-effect="#path-effect6"
       inkscape:original-d="m 50,194.31721 c 0,7.56093 0,15.12186 0,22.68279 6.740834,2.89763 13.481402,5.79513 20.222104,8.6927 -0.117036,8.10308 -0.234069,16.20584 -0.351102,24.30876"
       transform="translate(-13.211728,-6.6353878)" />
    <path
       style="fill:none;stroke:#000000;stroke-width:0.702204"
       d="m 30,249.65038 c -1e-6,-5.32509 -1e-6,-10.65018 1.549663,-13.31272 1.549664,-2.66255 4.648869,-2.66255 6.25702,0.0586 1.60815,2.72112 1.725182,8.16313 1.842216,13.60524"
       id="path7"
       inkscape:path-effect="#path-effect7"
       inkscape:original-d="m 30,249.65038 c -1e-6,-5.32509 -1e-6,-10.65018 -2e-6,-15.97527 3.099329,0 6.198534,0 9.297799,0 0.117036,5.44223 0.234067,10.88424 0.351102,16.32635"
       sodipodi:nodetypes="cccc"
       transform="translate(-13.211728,-6.6353878)" />
    <path
       style="fill:none;stroke:#000000;stroke-width:0.702204"
       d="m 49.648898,250.00146 c 0.117034,-7.66715 0.234068,-15.33431 -1.374115,-20.83459 -1.608184,-5.50027 -4.941452,-8.83354 -4.941417,-10.5002 C 43.3334,217 46.666665,217 49.978533,222.50035 c 3.311867,5.50036 6.602136,16.50063 9.892468,27.50111"
       id="path8"
       inkscape:path-effect="#path-effect8"
       inkscape:original-d="M 49.648898,250.00146 C 49.765931,242.33431 49.882967,234.66715 50,227 c -3.333401,-3.3334 -6.666667,-6.66667 -10.000001,-10 3.333401,0 6.666666,0 10.000001,0 3.290398,11.00071 6.580666,22.00098 9.871001,33.00146"
       transform="translate(-13.211728,-6.6353878)" />
    <text
       xml:space="preserve"
       style="font-size:8.46667px;font-family:'.PingFang TC';-inkscape-font-specification:'.PingFang TC';fill:none;stroke:#000000;stroke-width:0.702204"
       x="60.269772"
       y="215.52649"
       id="text21"><tspan
         sodipodi:role="line"
         id="tspan21"
         style="stroke-width:0.702204"
         x="60.269772"
         y="215.52649">=</tspan></text>
    <path
       style="fill:none;stroke:#000000;stroke-width:0.702204"
       id="ellipse21"
       transform="scale(-1)"
       sodipodi:type="arc"
       sodipodi:cx="-155.09309"
       sodipodi:cy="-243.19305"
       sodipodi:rx="5"
       sodipodi:ry="2.6827908"
       sodipodi:start="3.1415927"
       sodipodi:end="0"
       sodipodi:arc-type="arc"
       d="m -160.09309,-243.19305 a 5,2.6827908 0 0 1 5,-2.68279 5,2.6827908 0 0 1 5,2.68279"
       sodipodi:open="true" />
    <ellipse
       style="fill:none;stroke:#000000;stroke-width:0.702204"
       id="ellipse22"
       cx="-175.09309"
       cy="-187.85989"
       rx="5"
       ry="2.6503673"
       transform="scale(-1)" />
    <ellipse
       style="fill:none;stroke:#000000;stroke-width:0.702204"
       id="ellipse23"
       cx="-155.4442"
       cy="-187.50882"
       rx="5"
       ry="2.6503673"
       transform="scale(-1)" />
    <ellipse
       style="fill:none;stroke:#000000;stroke-width:0.702204"
       id="ellipse24"
       cx="-135.22209"
       cy="-187.50882"
       rx="5"
       ry="2.6503673"
       transform="scale(-1)" />
    <path
       style="fill:none;stroke:#000000;stroke-width:0.702204"
       d="m 20,249.65038 c 0,-7.55013 0,-15.10026 3.333399,-20.54202 3.333399,-5.44176 9.999934,-8.77503 13.333267,-14.22223 3.333333,-5.44721 3.333333,-13.00799 3.333333,-20.56892"
       id="path24"
       inkscape:path-effect="#path-effect28"
       inkscape:original-d="m 20,249.65038 c 0,-7.55013 0,-15.10026 0,-22.65038 6.666798,-3.3334 13.333332,-6.66667 19.999999,-10 0,-7.56108 0,-15.12186 0,-22.68279"
       transform="rotate(180,100.04656,218.75513)" />
    <path
       style="fill:none;stroke:#000000;stroke-width:0.702204"
       d="m 50,194.31721 c 0,7.56093 0,15.12186 3.370418,20.35114 3.370418,5.22927 10.110983,8.12678 13.422816,13.62711 3.311834,5.50032 3.194802,13.60308 3.077768,21.706"
       id="path25"
       inkscape:path-effect="#path-effect30"
       inkscape:original-d="m 50,194.31721 c 0,7.56093 0,15.12186 0,22.68279 6.740834,2.89763 13.481402,5.79513 20.222104,8.6927 -0.117036,8.10308 -0.234069,16.20584 -0.351102,24.30876"
       transform="rotate(180,100.04656,218.75513)" />
    <path
       style="fill:none;stroke:#000000;stroke-width:0.702204"
       d="m 30,249.65038 c -1e-6,-5.32509 -1e-6,-10.65018 1.549663,-13.31272 1.549664,-2.66255 4.648869,-2.66255 6.25702,0.0586 1.60815,2.72112 1.725182,8.16313 1.842216,13.60524"
       id="path26"
       inkscape:path-effect="#path-effect32"
       inkscape:original-d="m 30,249.65038 c -1e-6,-5.32509 -1e-6,-10.65018 -2e-6,-15.97527 3.099329,0 6.198534,0 9.297799,0 0.117036,5.44223 0.234067,10.88424 0.351102,16.32635"
       sodipodi:nodetypes="cccc"
       transform="rotate(180,100.04656,218.75513)" />
    <path
       style="fill:none;stroke:#000000;stroke-width:0.702204"
       d="m 49.648898,250.00146 c 0.117034,-7.66715 0.234068,-15.33431 -1.374115,-20.83459 -1.608184,-5.50027 -4.941452,-8.83354 -4.941417,-10.5002 C 43.3334,217 46.666665,217 49.978533,222.50035 c 3.311867,5.50036 6.602136,16.50063 9.892468,27.50111"
       id="path27"
       inkscape:path-effect="#path-effect34"
       inkscape:original-d="M 49.648898,250.00146 C 49.765931,242.33431 49.882967,234.66715 50,227 c -3.333401,-3.3334 -6.666667,-6.66667 -10.000001,-10 3.333401,0 6.666666,0 10.000001,0 3.290398,11.00071 6.580666,22.00098 9.871001,33.00146"
       transform="rotate(180,100.04656,218.75513)" />
    <text
       xml:space="preserve"
       style="font-size:8.46667px;font-family:'.PingFang TC';-inkscape-font-specification:'.PingFang TC';fill:none;stroke:#000000;stroke-width:0.702204"
       x="179.60345"
       y="218.00562"
       id="text47"><tspan
         sodipodi:role="line"
         id="tspan47"
         style="stroke-width:0.702204"
         x="179.60345"
         y="218.00562">=</tspan></text>
    <path
       style="fill:none;stroke:#000000;stroke-width:0.702204"
       id="ellipse47"
       sodipodi:type="arc"
       sodipodi:cx="11.78827"
       sodipodi:cy="243.01498"
       sodipodi:rx="5"
       sodipodi:ry="2.6503673"
       sodipodi:start="0"
       sodipodi:end="3.1415927"
       sodipodi:arc-type="arc"
       d="m 16.78827,243.01498 a 5,2.6503673 0 0 1 -2.5,2.29529 5,2.6503673 0 0 1 -5.0000001,0 5,2.6503673 0 0 1 -2.4999999,-2.29529"
       sodipodi:open="true" />
    <path
       style="fill:none;stroke:#000000;stroke-width:0.702204"
       id="ellipse48"
       sodipodi:type="arc"
       sodipodi:cx="31.437172"
       sodipodi:cy="243.36606"
       sodipodi:rx="5"
       sodipodi:ry="2.6503673"
       sodipodi:start="0"
       sodipodi:end="3.1415927"
       sodipodi:arc-type="arc"
       d="m 36.437172,243.36606 a 5,2.6503673 0 0 1 -2.5,2.29528 5,2.6503673 0 0 1 -5,0 5,2.6503673 0 0 1 -2.5,-2.29528"
       sodipodi:open="true" />
    <path
       style="fill:none;fill-opacity:1;stroke:#000000;stroke-width:0.702204;stroke-dasharray:1.05331, 1.05331;stroke-opacity:1;marker-start:none;marker-end:none"
       id="path48"
       sodipodi:type="arc"
       sodipodi:cx="51.659275"
       sodipodi:cy="243.36606"
       sodipodi:rx="5"
       sodipodi:ry="2.6503673"
       sodipodi:start="3.1415927"
       sodipodi:end="0"
       sodipodi:arc-type="arc"
       d="m 46.659275,243.36606 a 5,2.6503673 0 0 1 5,-2.65037 5,2.6503673 0 0 1 5,2.65037"
       sodipodi:open="true" />
    <path
       style="fill:none;stroke:#000000;stroke-width:0.702204"
       id="path49"
       sodipodi:type="arc"
       sodipodi:cx="51.659275"
       sodipodi:cy="243.36606"
       sodipodi:rx="5"
       sodipodi:ry="2.6503673"
       sodipodi:start="0"
       sodipodi:end="3.1415927"
       sodipodi:arc-type="arc"
       d="m 56.659275,243.36606 a 5,2.6503673 0 0 1 -2.5,2.29528 5,2.6503673 0 0 1 -5,0 5,2.6503673 0 0 1 -2.5,-2.29528"
       sodipodi:open="true" />
    <ellipse
       style="fill:none;stroke:#000000;stroke-width:0.702204"
       id="ellipse49"
       cx="-95.351097"
       cy="187"
       rx="5"
       ry="2.6827908"
       transform="scale(-1,1)" />
    <path
       style="fill:none;fill-opacity:1;stroke:#000000;stroke-width:0.702204;stroke-dasharray:1.05331, 1.05331;stroke-opacity:1;marker-start:none;marker-end:none"
       id="path50"
       sodipodi:type="arc"
       sodipodi:cx="-115.3511"
       sodipodi:cy="242.33316"
       sodipodi:rx="5"
       sodipodi:ry="2.6503673"
       sodipodi:start="3.1415927"
       sodipodi:end="0"
       sodipodi:open="true"
       sodipodi:arc-type="arc"
       d="m -120.3511,242.33316 a 5,2.6503673 0 0 1 5,-2.65037 5,2.6503673 0 0 1 5,2.65037"
       transform="scale(-1,1)" />
    <path
       style="fill:none;fill-opacity:1;stroke:#000000;stroke-width:0.702204;stroke-dasharray:1.05331, 1.05331;stroke-opacity:1;marker-start:none;marker-end:none"
       id="path51"
       sodipodi:type="arc"
       sodipodi:cx="-95.702202"
       sodipodi:cy="242.68423"
       sodipodi:rx="5"
       sodipodi:ry="2.6503673"
       sodipodi:start="3.1415927"
       sodipodi:end="0"
       sodipodi:arc-type="arc"
       d="m -100.7022,242.68423 a 5,2.6503673 0 0 1 4.999998,-2.65036 5,2.6503673 0 0 1 5,2.65036"
       sodipodi:open="true"
       transform="scale(-1,1)" />
    <path
       style="fill:none;stroke:#000000;stroke-width:0.702204"
       d="m 20,249.65038 c 0,-7.55013 0,-15.10026 3.333399,-20.54202 3.333399,-5.44176 9.999934,-8.77503 13.333267,-14.22223 3.333333,-5.44721 3.333333,-13.00799 3.333333,-20.56892"
       id="path52"
       inkscape:path-effect="#path-effect60"
       inkscape:original-d="m 20,249.65038 c 0,-7.55013 0,-15.10026 0,-22.65038 6.666798,-3.3334 13.333332,-6.66667 19.999999,-10 0,-7.56108 0,-15.12186 0,-22.68279"
       transform="matrix(-1,0,0,1,140.3511,-7.3172102)" />
    <path
       style="fill:none;stroke:#000000;stroke-width:0.702204"
       d="m 50,194.31721 c 0,7.56093 0,15.12186 3.370418,20.35114 3.370418,5.22927 10.110983,8.12678 13.422816,13.62711 3.311834,5.50032 3.194802,13.60308 3.077768,21.706"
       id="path53"
       inkscape:path-effect="#path-effect62"
       inkscape:original-d="m 50,194.31721 c 0,7.56093 0,15.12186 0,22.68279 6.740834,2.89763 13.481402,5.79513 20.222104,8.6927 -0.117036,8.10308 -0.234069,16.20584 -0.351102,24.30876"
       transform="matrix(-1,0,0,1,140.3511,-7.3172102)" />
    <path
       style="fill:none;stroke:#000000;stroke-width:0.702204"
       d="m 30,249.65038 c -1e-6,-5.32509 -1e-6,-10.65018 1.549663,-13.31272 1.549664,-2.66255 4.648869,-2.66255 6.25702,0.0586 1.60815,2.72112 1.725182,8.16313 1.842216,13.60524"
       id="path54"
       inkscape:path-effect="#path-effect64"
       inkscape:original-d="m 30,249.65038 c -1e-6,-5.32509 -1e-6,-10.65018 -2e-6,-15.97527 3.099329,0 6.198534,0 9.297799,0 0.117036,5.44223 0.234067,10.88424 0.351102,16.32635"
       sodipodi:nodetypes="cccc"
       transform="matrix(-1,0,0,1,140.3511,-7.3172102)" />
    <path
       style="fill:none;stroke:#000000;stroke-width:0.702204"
       d="m 49.648898,250.00146 c 0.117034,-7.66715 0.234068,-15.33431 -1.374115,-20.83459 -1.608184,-5.50027 -4.941452,-8.83354 -4.941417,-10.5002 C 43.3334,217 46.666665,217 49.978533,222.50035 c 3.311867,5.50036 6.602136,16.50063 9.892468,27.50111"
       id="path55"
       inkscape:path-effect="#path-effect66"
       inkscape:original-d="M 49.648898,250.00146 C 49.765931,242.33431 49.882967,234.66715 50,227 c -3.333401,-3.3334 -6.666667,-6.66667 -10.000001,-10 3.333401,0 6.666666,0 10.000001,0 3.290398,11.00071 6.580666,22.00098 9.871001,33.00146"
       transform="matrix(-1,0,0,1,140.3511,-7.3172102)" />
    <path
       style="fill:none;stroke:#000000;stroke-width:0.702204"
       id="path56"
       sodipodi:type="arc"
       sodipodi:cx="-115.3511"
       sodipodi:cy="242.33316"
       sodipodi:rx="5"
       sodipodi:ry="2.6503673"
       sodipodi:start="0"
       sodipodi:end="3.1415927"
       sodipodi:arc-type="arc"
       d="m -110.3511,242.33316 a 5,2.6503673 0 0 1 -2.5,2.29529 5,2.6503673 0 0 1 -5,0 5,2.6503673 0 0 1 -2.5,-2.29529"
       sodipodi:open="true"
       transform="scale(-1,1)" />
    <path
       style="fill:none;stroke:#000000;stroke-width:0.702204"
       id="path57"
       sodipodi:type="arc"
       sodipodi:cx="-95.702202"
       sodipodi:cy="242.68423"
       sodipodi:rx="5"
       sodipodi:ry="2.6503673"
       sodipodi:start="0"
       sodipodi:end="3.1415927"
       sodipodi:arc-type="arc"
       d="m -90.702202,242.68423 a 5,2.6503673 0 0 1 -2.5,2.29529 5,2.6503673 0 0 1 -5,0 5,2.6503673 0 0 1 -2.499998,-2.29529"
       sodipodi:open="true"
       transform="scale(-1,1)" />
    <path
       style="fill:none;fill-opacity:1;stroke:#000000;stroke-width:0.702204;stroke-dasharray:1.05331, 1.05331;stroke-opacity:1;marker-start:none;marker-end:none"
       id="path58"
       sodipodi:type="arc"
       sodipodi:cx="-75.480095"
       sodipodi:cy="242.68423"
       sodipodi:rx="5"
       sodipodi:ry="2.6503673"
       sodipodi:start="3.1415927"
       sodipodi:end="0"
       sodipodi:arc-type="arc"
       d="m -80.480095,242.68423 a 5,2.6503673 0 0 1 5,-2.65036 5,2.6503673 0 0 1 5,2.65036"
       sodipodi:open="true"
       transform="scale(-1,1)" />
    <path
       style="fill:none;stroke:#000000;stroke-width:0.702204"
       id="path59"
       sodipodi:type="arc"
       sodipodi:cx="-75.480095"
       sodipodi:cy="242.68423"
       sodipodi:rx="5"
       sodipodi:ry="2.6503673"
       sodipodi:start="0"
       sodipodi:end="3.1415927"
       sodipodi:arc-type="arc"
       d="m -70.480095,242.68423 a 5,2.6503673 0 0 1 -2.5,2.29529 5,2.6503673 0 0 1 -5,0 5,2.6503673 0 0 1 -2.5,-2.29529"
       sodipodi:open="true"
       transform="scale(-1,1)" />
    <path
       style="fill:none;fill-opacity:1;stroke:#000000;stroke-width:0.702204;stroke-dasharray:1.05331, 1.05331;stroke-opacity:1;marker-start:none;marker-end:none"
       id="ellipse66"
       transform="scale(-1)"
       sodipodi:type="arc"
       sodipodi:cx="-155.09309"
       sodipodi:cy="-243.19305"
       sodipodi:rx="5"
       sodipodi:ry="2.6827908"
       sodipodi:start="0"
       sodipodi:end="3.1415927"
       sodipodi:arc-type="arc"
       d="m -150.09309,-243.19305 a 5,2.6827908 0 0 1 -2.5,2.32336 5,2.6827908 0 0 1 -5,0 5,2.6827908 0 0 1 -2.5,-2.32336"
       sodipodi:open="true" />
    <path
       style="fill:none;fill-opacity:1;stroke:#000000;stroke-width:0.702204;stroke-dasharray:1.05331, 1.05331;stroke-opacity:1;marker-start:none;marker-end:none"
       id="path68"
       transform="scale(-1)"
       sodipodi:type="arc"
       sodipodi:cx="-155.09309"
       sodipodi:cy="-243.19305"
       sodipodi:rx="5"
       sodipodi:ry="2.6827908"
       sodipodi:start="0"
       sodipodi:end="3.1415927"
       sodipodi:arc-type="arc"
       d="m -150.09309,-243.19305 a 5,2.6827908 0 0 1 -2.5,2.32336 5,2.6827908 0 0 1 -5,0 5,2.6827908 0 0 1 -2.5,-2.32336"
       sodipodi:open="true" />
    <path
       style="fill:none;stroke:#000000;stroke-width:0.702204"
       id="path69"
       transform="scale(1,-1)"
       sodipodi:type="arc"
       sodipodi:cx="211.23433"
       sodipodi:cy="-242.91742"
       sodipodi:rx="5"
       sodipodi:ry="2.6827908"
       sodipodi:start="3.1415927"
       sodipodi:end="0"
       sodipodi:arc-type="arc"
       d="m 206.23433,-242.91742 a 5,2.6827908 0 0 1 5,-2.68279 5,2.6827908 0 0 1 5,2.68279"
       sodipodi:open="true" />
    <ellipse
       style="fill:none;stroke:#000000;stroke-width:0.702204"
       id="ellipse69"
       cx="191.23433"
       cy="-187.58426"
       rx="5"
       ry="2.6503673"
       transform="scale(1,-1)" />
    <ellipse
       style="fill:none;stroke:#000000;stroke-width:0.702204"
       id="ellipse70"
       cx="210.88322"
       cy="-187.23318"
       rx="5"
       ry="2.6503673"
       transform="scale(1,-1)" />
    <ellipse
       style="fill:none;stroke:#000000;stroke-width:0.702204"
       id="ellipse71"
       cx="231.10533"
       cy="-187.23318"
       rx="5"
       ry="2.6503673"
       transform="scale(1,-1)" />
    <path
       style="fill:none;stroke:#000000;stroke-width:0.702204"
       d="m 20,249.65038 c 0,-7.55013 0,-15.10026 3.333399,-20.54202 3.333399,-5.44176 9.999934,-8.77503 13.333267,-14.22223 3.333333,-5.44721 3.333333,-13.00799 3.333333,-20.56892"
       id="path71"
       inkscape:path-effect="#path-effect77"
       inkscape:original-d="m 20,249.65038 c 0,-7.55013 0,-15.10026 0,-22.65038 6.666798,-3.3334 13.333332,-6.66667 19.999999,-10 0,-7.56108 0,-15.12186 0,-22.68279"
       transform="matrix(1,0,0,-1,166.2343,437.23463)" />
    <path
       style="fill:none;stroke:#000000;stroke-width:0.702204"
       d="m 50,194.31721 c 0,7.56093 0,15.12186 3.370418,20.35114 3.370418,5.22927 10.110983,8.12678 13.422816,13.62711 3.311834,5.50032 3.194802,13.60308 3.077768,21.706"
       id="path72"
       inkscape:path-effect="#path-effect79"
       inkscape:original-d="m 50,194.31721 c 0,7.56093 0,15.12186 0,22.68279 6.740834,2.89763 13.481402,5.79513 20.222104,8.6927 -0.117036,8.10308 -0.234069,16.20584 -0.351102,24.30876"
       transform="matrix(1,0,0,-1,166.2343,437.23463)" />
    <path
       style="fill:none;stroke:#000000;stroke-width:0.702204"
       d="m 30,249.65038 c -1e-6,-5.32509 -1e-6,-10.65018 1.549663,-13.31272 1.549664,-2.66255 4.648869,-2.66255 6.25702,0.0586 1.60815,2.72112 1.725182,8.16313 1.842216,13.60524"
       id="path73"
       inkscape:path-effect="#path-effect81"
       inkscape:original-d="m 30,249.65038 c -1e-6,-5.32509 -1e-6,-10.65018 -2e-6,-15.97527 3.099329,0 6.198534,0 9.297799,0 0.117036,5.44223 0.234067,10.88424 0.351102,16.32635"
       sodipodi:nodetypes="cccc"
       transform="matrix(1,0,0,-1,166.2343,437.23463)" />
    <path
       style="fill:none;stroke:#000000;stroke-width:0.702204"
       d="m 49.648898,250.00146 c 0.117034,-7.66715 0.234068,-15.33431 -1.374115,-20.83459 -1.608184,-5.50027 -4.941452,-8.83354 -4.941417,-10.5002 C 43.3334,217 46.666665,217 49.978533,222.50035 c 3.311867,5.50036 6.602136,16.50063 9.892468,27.50111"
       id="path74"
       inkscape:path-effect="#path-effect83"
       inkscape:original-d="M 49.648898,250.00146 C 49.765931,242.33431 49.882967,234.66715 50,227 c -3.333401,-3.3334 -6.666667,-6.66667 -10.000001,-10 3.333401,0 6.666666,0 10.000001,0 3.290398,11.00071 6.580666,22.00098 9.871001,33.00146"
       transform="matrix(1,0,0,-1,166.2343,437.23463)" />
    <path
       style="fill:none;fill-opacity:1;stroke:#000000;stroke-width:0.702204;stroke-dasharray:1.05331, 1.05331;stroke-opacity:1;marker-start:none;marker-end:none"
       id="path75"
       transform="scale(1,-1)"
       sodipodi:type="arc"
       sodipodi:cx="211.23433"
       sodipodi:cy="-242.91742"
       sodipodi:rx="5"
       sodipodi:ry="2.6827908"
       sodipodi:start="0"
       sodipodi:end="3.1415927"
       sodipodi:arc-type="arc"
       d="m 216.23433,-242.91742 a 5,2.6827908 0 0 1 -2.5,2.32337 5,2.6827908 0 0 1 -5,0 5,2.6827908 0 0 1 -2.5,-2.32337"
       sodipodi:open="true" />
    <path
       style="fill:none;fill-opacity:1;stroke:#000000;stroke-width:0.702204;stroke-dasharray:1.05331, 1.05331;stroke-opacity:1;marker-start:none;marker-end:none"
       id="path76"
       transform="scale(1,-1)"
       sodipodi:type="arc"
       sodipodi:cx="211.23433"
       sodipodi:cy="-242.91742"
       sodipodi:rx="5"
       sodipodi:ry="2.6827908"
       sodipodi:start="0"
       sodipodi:end="3.1415927"
       sodipodi:arc-type="arc"
       d="m 216.23433,-242.91742 a 5,2.6827908 0 0 1 -2.5,2.32337 5,2.6827908 0 0 1 -5,0 5,2.6827908 0 0 1 -2.5,-2.32337"
       sodipodi:open="true" />
  </g>
</svg>
